# xmcd
#
# Track frame offsets:
# 150
# 20123
# 34273
# 52232
# 71593
# 91345
# 112760
# 132100
# 152058
# 173318
# 193294
# 219960
# 234949
# 255314
# 273805
# 294665
# 314110
#
# Disc length: 4663 seconds
#
#
# Revision: 1
# Processed by: cddbd v1.5.1PL0 Copyright (c) Steve Scherf et al.
# Submitted via: FreeRIP 2.80 
#
DISCID=ee123511
DTITLE=刀郎 - 新阿瓦古丽
DYEAR=1900
DGENRE=Country
TTITLE0=北方天空下
TTITLE1=阿瓦尔古里
TTITLE2=曼丽
TTITLE3=在那遥远的地方
TTITLE4=茶花姑娘
TTITLE5=伤心无奈爱已不存在
TTITLE6=2002年的第一场雪
TTITLE7=新阿瓦尔古里
TTITLE8=新疆好
TTITLE9=萨拉姆毛主席
TTITLE10=艾里莆与赛乃姆
TTITLE11=情人
TTITLE12=草原之夜
TTITLE13=祝酒歌
TTITLE14=敖包相会
TTITLE15=雨中飘荡的回忆
TTITLE16=冲动的惩罚
EXTD=
EXTT0=
EXTT1=
EXTT2=
EXTT3=
EXTT4=
EXTT5=
EXTT6=
EXTT7=
EXTT8=
EXTT9=
EXTT10=
EXTT11=
EXTT12=
EXTT13=
EXTT14=
EXTT15=
EXTT16=
PLAYORDER=
